<mxfile host="app.diagrams.net" modified="2021-12-14T17:09:24.826Z" agent="5.0 (Windows NT 10.0; Win64; x64) AppleWebKit/537.36 (KHTML, like Gecko) Chrome/93.0.4577.82 Safari/537.36" etag="c907dpnsWnMW6IFt7gQ1" version="15.9.4" type="github">
  <diagram id="olTlq11QAtaGwBvSvu5_" name="第 1 页">
    <mxGraphModel dx="1422" dy="754" grid="1" gridSize="10" guides="1" tooltips="1" connect="1" arrows="1" fold="1" page="1" pageScale="1" pageWidth="827" pageHeight="1169" math="0" shadow="0">
      <root>
        <mxCell id="0" />
        <mxCell id="1" parent="0" />
        <mxCell id="-i7BE36611PpVM7dt-jC-1" value="0" style="rounded=0;whiteSpace=wrap;html=1;fillColor=#f5f5f5;fontColor=#333333;strokeColor=#666666;shadow=1;" vertex="1" parent="1">
          <mxGeometry x="160" y="120" width="40" height="40" as="geometry" />
        </mxCell>
        <mxCell id="-i7BE36611PpVM7dt-jC-2" value="1" style="rounded=0;whiteSpace=wrap;html=1;fillColor=#f5f5f5;fontColor=#333333;strokeColor=#666666;shadow=1;" vertex="1" parent="1">
          <mxGeometry x="200" y="120" width="40" height="40" as="geometry" />
        </mxCell>
        <mxCell id="-i7BE36611PpVM7dt-jC-3" value="" style="rounded=0;whiteSpace=wrap;html=1;fillColor=#f5f5f5;fontColor=#333333;strokeColor=#666666;shadow=1;" vertex="1" parent="1">
          <mxGeometry x="240" y="120" width="160" height="40" as="geometry" />
        </mxCell>
        <mxCell id="-i7BE36611PpVM7dt-jC-7" value="" style="rounded=0;whiteSpace=wrap;html=1;fillColor=#f5f5f5;fontColor=#333333;strokeColor=#666666;shadow=1;" vertex="1" parent="1">
          <mxGeometry x="400" y="120" width="40" height="40" as="geometry" />
        </mxCell>
        <mxCell id="-i7BE36611PpVM7dt-jC-8" value="" style="rounded=0;whiteSpace=wrap;html=1;fillColor=#f5f5f5;fontColor=#333333;strokeColor=#666666;shadow=1;" vertex="1" parent="1">
          <mxGeometry x="440" y="120" width="40" height="40" as="geometry" />
        </mxCell>
        <mxCell id="-i7BE36611PpVM7dt-jC-9" value="&lt;font style=&quot;font-size: 15px&quot;&gt;0&lt;/font&gt;" style="rounded=0;whiteSpace=wrap;html=1;fillColor=#f5f5f5;fontColor=#333333;strokeColor=#666666;shadow=0;opacity=0;" vertex="1" parent="1">
          <mxGeometry x="160" y="160" width="40" height="40" as="geometry" />
        </mxCell>
        <mxCell id="-i7BE36611PpVM7dt-jC-10" value="&lt;font style=&quot;font-size: 15px&quot;&gt;1&lt;/font&gt;" style="rounded=0;whiteSpace=wrap;html=1;fillColor=#f5f5f5;fontColor=#333333;strokeColor=#666666;shadow=0;opacity=0;" vertex="1" parent="1">
          <mxGeometry x="200" y="160" width="40" height="40" as="geometry" />
        </mxCell>
        <mxCell id="-i7BE36611PpVM7dt-jC-12" value="&lt;font style=&quot;font-size: 15px&quot;&gt;... ...&lt;/font&gt;" style="rounded=0;whiteSpace=wrap;html=1;fillColor=#f5f5f5;fontColor=#333333;strokeColor=#666666;shadow=0;opacity=0;" vertex="1" parent="1">
          <mxGeometry x="240" y="160" width="160" height="40" as="geometry" />
        </mxCell>
        <mxCell id="-i7BE36611PpVM7dt-jC-15" value="&lt;font style=&quot;font-size: 15px&quot;&gt;N-1&lt;/font&gt;" style="rounded=0;whiteSpace=wrap;html=1;fillColor=#f5f5f5;fontColor=#333333;strokeColor=#666666;shadow=0;opacity=0;" vertex="1" parent="1">
          <mxGeometry x="400" y="160" width="40" height="40" as="geometry" />
        </mxCell>
        <mxCell id="-i7BE36611PpVM7dt-jC-16" value="&lt;font style=&quot;font-size: 15px&quot;&gt;N&lt;/font&gt;" style="rounded=0;whiteSpace=wrap;html=1;fillColor=#f5f5f5;fontColor=#333333;strokeColor=#666666;shadow=0;opacity=0;" vertex="1" parent="1">
          <mxGeometry x="440" y="160" width="40" height="40" as="geometry" />
        </mxCell>
        <mxCell id="-i7BE36611PpVM7dt-jC-17" value="&lt;font face=&quot;Comic Sans MS&quot;&gt;原问题:求由&lt;i&gt;f(n)&lt;/i&gt;表示的&lt;span&gt;斐波那契数列的值&lt;/span&gt;&lt;/font&gt;&lt;div class=&quot;okr-block-clipboard&quot;&gt;&lt;/div&gt;" style="text;html=1;strokeColor=none;fillColor=none;align=center;verticalAlign=middle;whiteSpace=wrap;rounded=0;shadow=0;fontSize=15;opacity=0;" vertex="1" parent="1">
          <mxGeometry x="160" y="80" width="320" height="40" as="geometry" />
        </mxCell>
        <mxCell id="-i7BE36611PpVM7dt-jC-18" value="&lt;pre style=&quot;box-sizing: border-box ; font-size: 13px ; font-family: , &amp;#34;consolas&amp;#34; , &amp;#34;liberation mono&amp;#34; , &amp;#34;menlo&amp;#34; , &amp;#34;courier&amp;#34; , monospace ; margin-top: 0px ; margin-bottom: 1em ; overflow: auto ; background: rgba() ; padding: 10px 15px ; color: rgba(, 1) ; line-height: 1.6 ; border-radius: 3px&quot;&gt;&lt;font face=&quot;Comic Sans MS&quot;&gt;&lt;i&gt;F(0) = 0，F(1)&amp;nbsp;= 1&lt;/i&gt;&lt;/font&gt;&lt;/pre&gt;" style="text;html=1;strokeColor=none;fillColor=none;align=center;verticalAlign=middle;whiteSpace=wrap;rounded=0;shadow=0;fontSize=15;opacity=0;" vertex="1" parent="1">
          <mxGeometry x="160" y="200" width="320" height="40" as="geometry" />
        </mxCell>
        <mxCell id="-i7BE36611PpVM7dt-jC-19" value="&lt;pre style=&quot;box-sizing: border-box ; font-size: 13px ; font-family: , &amp;#34;consolas&amp;#34; , &amp;#34;liberation mono&amp;#34; , &amp;#34;menlo&amp;#34; , &amp;#34;courier&amp;#34; , monospace ; margin-top: 0px ; margin-bottom: 1em ; overflow: auto ; background: rgba() ; padding: 10px 15px ; color: rgba(, 1) ; line-height: 1.6 ; border-radius: 3px&quot;&gt;&lt;font face=&quot;Comic Sans MS&quot;&gt;&lt;i&gt;F(n) = F(n-1) + F(n-2) 其中n&amp;gt;1&lt;/i&gt;&lt;/font&gt;&lt;/pre&gt;" style="text;html=1;strokeColor=none;fillColor=none;align=center;verticalAlign=middle;whiteSpace=wrap;rounded=0;shadow=0;fontSize=15;opacity=0;" vertex="1" parent="1">
          <mxGeometry x="160" y="240" width="320" height="40" as="geometry" />
        </mxCell>
        <mxCell id="-i7BE36611PpVM7dt-jC-20" value="0" style="rounded=0;whiteSpace=wrap;html=1;fillColor=#f5f5f5;fontColor=#333333;strokeColor=#666666;shadow=1;" vertex="1" parent="1">
          <mxGeometry x="160" y="360" width="40" height="40" as="geometry" />
        </mxCell>
        <mxCell id="-i7BE36611PpVM7dt-jC-21" value="1" style="rounded=0;whiteSpace=wrap;html=1;fillColor=#f5f5f5;fontColor=#333333;strokeColor=#666666;shadow=1;" vertex="1" parent="1">
          <mxGeometry x="200" y="360" width="40" height="40" as="geometry" />
        </mxCell>
        <mxCell id="-i7BE36611PpVM7dt-jC-22" value="" style="rounded=0;whiteSpace=wrap;html=1;fillColor=#f5f5f5;fontColor=#333333;strokeColor=#666666;shadow=1;" vertex="1" parent="1">
          <mxGeometry x="240" y="360" width="160" height="40" as="geometry" />
        </mxCell>
        <mxCell id="-i7BE36611PpVM7dt-jC-23" value="" style="rounded=0;whiteSpace=wrap;html=1;fillColor=#f5f5f5;fontColor=#333333;strokeColor=#666666;shadow=1;" vertex="1" parent="1">
          <mxGeometry x="400" y="360" width="40" height="40" as="geometry" />
        </mxCell>
        <mxCell id="-i7BE36611PpVM7dt-jC-24" value="" style="rounded=0;whiteSpace=wrap;html=1;fillColor=#f5f5f5;fontColor=#333333;strokeColor=#666666;shadow=1;" vertex="1" parent="1">
          <mxGeometry x="440" y="360" width="40" height="40" as="geometry" />
        </mxCell>
        <mxCell id="-i7BE36611PpVM7dt-jC-25" value="&lt;font style=&quot;font-size: 15px&quot;&gt;0&lt;/font&gt;" style="rounded=0;whiteSpace=wrap;html=1;fillColor=#f5f5f5;fontColor=#333333;strokeColor=#666666;shadow=0;opacity=0;" vertex="1" parent="1">
          <mxGeometry x="160" y="400" width="40" height="40" as="geometry" />
        </mxCell>
        <mxCell id="-i7BE36611PpVM7dt-jC-26" value="&lt;font style=&quot;font-size: 15px&quot;&gt;1&lt;/font&gt;" style="rounded=0;whiteSpace=wrap;html=1;fillColor=#f5f5f5;fontColor=#333333;strokeColor=#666666;shadow=0;opacity=0;" vertex="1" parent="1">
          <mxGeometry x="200" y="400" width="40" height="40" as="geometry" />
        </mxCell>
        <mxCell id="-i7BE36611PpVM7dt-jC-27" value="&lt;font style=&quot;font-size: 15px&quot;&gt;... ...&lt;/font&gt;" style="rounded=0;whiteSpace=wrap;html=1;fillColor=#f5f5f5;fontColor=#333333;strokeColor=#666666;shadow=0;opacity=0;" vertex="1" parent="1">
          <mxGeometry x="240" y="400" width="160" height="40" as="geometry" />
        </mxCell>
        <mxCell id="-i7BE36611PpVM7dt-jC-28" value="&lt;font style=&quot;font-size: 15px&quot;&gt;N-1&lt;/font&gt;" style="rounded=0;whiteSpace=wrap;html=1;fillColor=#f5f5f5;fontColor=#333333;strokeColor=#666666;shadow=0;opacity=0;" vertex="1" parent="1">
          <mxGeometry x="400" y="400" width="40" height="40" as="geometry" />
        </mxCell>
        <mxCell id="-i7BE36611PpVM7dt-jC-30" value="&lt;font face=&quot;Comic Sans MS&quot;&gt;子问题:求由&lt;i&gt;f(n-1)&lt;/i&gt;表示的&lt;span&gt;斐波那契数列的值&lt;/span&gt;&lt;/font&gt;&lt;div class=&quot;okr-block-clipboard&quot;&gt;&lt;/div&gt;" style="text;html=1;strokeColor=none;fillColor=none;align=center;verticalAlign=middle;whiteSpace=wrap;rounded=0;shadow=0;fontSize=15;opacity=0;" vertex="1" parent="1">
          <mxGeometry x="160" y="320" width="320" height="40" as="geometry" />
        </mxCell>
      </root>
    </mxGraphModel>
  </diagram>
</mxfile>
